#
#
mtllib sol1.mtl
o KillerFrostIceBlock
v -0.262317 -0.255998 -0.262563
v -0.142504 -0.142474 -0.276807
v -0.142260 -0.268512 -0.266580
v -0.142447 0.000069 -0.274410
v -0.000485 0.000198 -0.285469
v 0.000111 -0.142244 -0.284692
v -0.265464 0.140818 -0.263922
v -0.142120 0.142179 -0.281138
v -0.000364 0.253599 -0.271091
v -0.000605 0.143742 -0.294732
v 0.140361 0.001956 -0.303603
v 0.141757 0.142671 -0.289417
v 0.142454 0.268296 -0.270086
v 0.254641 0.252842 -0.250461
v 0.250101 0.140460 -0.267397
v 0.266956 -0.000060 -0.270070
v 0.140488 -0.260577 -0.248017
v 0.141986 -0.141242 -0.285772
v -0.271586 -0.140964 0.268844
v -0.263946 -0.238730 0.250427
v -0.142459 -0.142258 0.286886
v -0.142048 -0.273307 0.275258
v 0.000273 -0.272114 0.270280
v 0.000017 -0.142416 0.279394
v 0.000042 0.000035 0.274243
v -0.143059 -0.000011 0.296240
v -0.278597 0.000001 0.278411
v 0.139892 -0.261760 0.264098
v 0.142298 -0.142317 0.283043
v 0.242088 -0.237739 0.241710
v 0.265758 -0.141346 0.259829
v 0.140882 0.000348 0.278633
v 0.246195 0.000132 0.255341
v -0.000020 0.142414 0.293055
v 0.141506 0.142797 0.279512
v 0.244717 0.241239 0.249459
v 0.000026 0.268156 0.273230
v -0.273124 0.141117 0.273696
v -0.142481 0.142478 0.286603
v -0.142447 -0.283506 -0.142402
v -0.273111 -0.266016 -0.142540
v 0.000954 -0.264997 -0.258584
v 0.000064 -0.283147 -0.142108
v -0.141976 -0.266213 0.000528
v 0.000556 -0.263060 0.000384
v -0.265131 -0.266184 -0.000120
v 0.141962 -0.278696 -0.141673
v 0.242090 -0.239759 -0.237687
v 0.263540 -0.264077 -0.141397
v 0.142382 -0.280945 -0.000052
v 0.271459 -0.270951 0.000019
v 0.000074 -0.275091 0.142558
v 0.140975 -0.261463 0.141042
v 0.264473 -0.259062 0.139337
v -0.262494 -0.262311 0.141719
v -0.141993 -0.283077 0.142439
v 0.291118 -0.142718 -0.142247
v 0.263852 -0.141324 -0.263626
v 0.292911 -0.000503 -0.142128
v 0.277450 -0.142626 0.000089
v 0.281341 -0.000127 -0.000218
v 0.278269 0.141890 -0.142684
v 0.259497 0.266783 -0.144010
v 0.276586 0.142208 -0.000083
v 0.252752 0.258386 -0.001735
v 0.264762 0.000172 0.141104
v 0.278874 0.142331 0.142135
v 0.258081 0.262668 0.141666
v 0.257887 0.141554 0.260026
v 0.283038 -0.141702 0.141366
v 0.140722 0.281675 -0.141895
v 0.000005 0.283212 -0.142380
v 0.142009 0.272850 -0.000176
v 0.001117 0.299906 -0.000213
v -0.142107 0.262958 -0.269868
v -0.142343 0.287762 -0.142670
v -0.248633 0.239010 -0.241440
v -0.142506 0.286735 -0.000032
v 0.000043 0.293973 0.142465
v -0.142400 0.287429 0.142650
v -0.140729 0.258064 0.270409
v 0.142119 0.284003 0.142472
v 0.142126 0.275601 0.272429
v -0.248167 0.256647 -0.138351
v -0.276250 0.141931 -0.142215
v -0.267120 -0.000475 -0.142424
v -0.271404 -0.000588 -0.266278
v -0.279339 -0.000393 0.000112
v -0.277163 0.142349 0.000015
v -0.269845 0.266719 0.000045
v -0.285620 -0.142690 -0.142328
v -0.273371 -0.142847 -0.277173
v -0.286480 -0.142419 0.000017
v -0.278481 -0.000158 0.142336
v -0.290090 -0.142223 0.142083
v -0.263705 0.263659 0.141710
v -0.283811 0.142364 0.142468
v -0.237808 0.245188 0.245595
vt 0.916016 0.380371
vt 0.998535 0.257324
vt 0.998535 0.380371
vt 0.916016 0.257324
vt 0.833496 0.380371
vt 0.750977 0.380371
vt 0.668457 0.503418
vt 0.668457 0.380371
vt 0.585938 0.380371
vt 0.585938 0.503418
vt 0.503418 0.380371
vt 0.585938 0.626465
vt 0.668457 0.626465
vt 0.668457 0.749512
vt 0.585938 0.749512
vt 0.503418 0.626465
vt 0.503418 0.503418
vt 0.421387 0.626465
vt 0.421387 0.503418
vt 0.421387 0.380371
vt 0.338867 0.503418
vt 0.338867 0.626465
vt 0.421387 0.749512
vt 0.338867 0.749512
vt 0.338867 0.872437
vt 0.421387 0.872437
vt 0.503418 0.872437
vt 0.585938 0.872437
vt 0.503418 0.749512
vt 0.503418 0.995422
vt 0.088318 0.875000
vt 0.166626 0.995029
vt 0.088318 0.995029
vt 0.010025 0.995029
vt 0.010025 0.875000
vt 0.244995 0.755005
vt 0.323242 0.875000
vt 0.244995 0.875000
vt 0.166626 0.875000
vt 0.088318 0.755005
vt 0.010025 0.755005
vt 0.166626 0.755005
vt 0.244995 0.635010
vt 0.088318 0.635010
vt 0.166626 0.635010
vt 0.088318 0.514893
vt 0.323242 0.514893
vt 0.244995 0.514893
vt 0.762695 0.754883
vt 0.762695 0.634766
vt 0.840820 0.754883
vt 0.840820 0.634766
vt 0.919434 0.754883
vt 0.919434 0.634766
vt 0.762695 0.874878
vt 0.840820 0.874878
vt 0.919434 0.874878
vt 0.919434 0.994934
vt 0.762695 0.994934
vt 0.919434 0.514893
vt 0.997559 0.514893
vt 0.091492 0.380371
vt 0.091492 0.257324
vt 0.173950 0.380371
vt 0.173950 0.257324
vt 0.256348 0.380371
vt 0.256348 0.257324
vt 0.338867 0.380371
vt 0.009026 0.380371
vt 0.009026 0.503418
vt 0.421387 0.257324
vt 0.338867 0.257324
vt 0.256348 0.134766
vt 0.173950 0.134766
vt 0.091492 0.134766
vt 0.173950 0.011719
vt 0.256348 0.011719
vt 0.009026 0.134766
vt 0.009026 0.257324
vt 0.421387 0.134766
vt 0.503418 0.011719
vt 0.503418 0.134766
vt 0.585938 0.134766
vt 0.668457 0.011719
vt 0.668457 0.134766
vt 0.585938 0.257324
vt 0.668457 0.257324
vt 0.503418 0.257324
vt 0.338867 0.134766
vt 0.750977 0.257324
vt 0.750977 0.134766
vt 0.833496 0.134766
vt 0.833496 0.257324
vt 0.916016 0.134766
vt 0.750977 0.011719
vt 0.998535 0.134766
vt 0.998535 0.503418
vt 0.916016 0.503418
vt 0.833496 0.503418
vt 0.750977 0.503418
vt 0.338867 0.995422
vt 0.421387 0.995422
vt 0.585938 0.995422
vt 0.668457 0.995422
vt 0.668457 0.872437
vt 0.323242 0.755005
vt 0.323242 0.995029
vt 0.244995 0.995029
vt 0.323242 0.635010
vt 0.010025 0.635010
vt 0.010025 0.514893
vt 0.166626 0.514893
vt 0.684082 0.754883
vt 0.684082 0.634766
vt 0.684082 0.874878
vt 0.997559 0.874878
vt 0.997559 0.754883
vt 0.997559 0.994934
vt 0.840820 0.994934
vt 0.684082 0.994934
vt 0.684082 0.514893
vt 0.762695 0.514893
vt 0.840820 0.514893
vt 0.997559 0.634766
vt 0.091492 0.503418
vt 0.173950 0.503418
vt 0.256348 0.503418
vt 0.338867 0.011719
vt 0.091492 0.011719
vt 0.009026 0.011719
vt 0.421387 0.011719
vt 0.585938 0.011719
vt 0.833496 0.011719
vt 0.916016 0.011719
vt 0.998535 0.011719
vn 0.996643 0.038392 0.071963
vn 0.691977 0.721885 0.002808
vn 0.703360 0.705802 0.084140
vn 0.994751 0.101169 0.014313
vn 0.992035 0.030519 0.122044
vn 0.995148 -0.045167 0.087344
vn 0.562212 -0.609943 0.558397
vn 0.669759 -0.721397 0.175909
vn 0.057772 -0.996063 0.066805
vn 0.176580 -0.735984 0.653523
vn 0.068697 -0.996918 -0.037294
vn 0.092196 -0.067782 0.993408
vn 0.731590 -0.080996 0.676870
vn 0.706076 0.017731 0.707877
vn 0.109226 -0.002747 0.993988
vn 0.023072 -0.027528 0.999329
vn 0.067782 -0.724570 0.685812
vn -0.044954 -0.073702 0.996246
vn -0.140446 -0.708121 0.691946
vn -0.078921 -0.996796 -0.012543
vn -0.645924 -0.537126 0.542436
vn -0.706992 -0.107395 0.698965
vn 0.013153 -0.003998 0.999878
vn -0.749657 -0.015015 0.661611
vn -0.712668 0.204108 0.671102
vn -0.067171 0.099338 0.992767
vn 0.011078 0.026002 0.999573
vn 0.132115 0.038179 0.990478
vn 0.023591 -0.035401 0.999084
vn -0.031281 0.682852 0.729850
vn 0.111454 0.129582 -0.985260
vn -0.005432 0.680441 -0.732749
vn 0.069796 0.728782 -0.681143
vn 0.630573 0.554369 -0.543138
vn 0.679434 0.096530 -0.727348
vn -0.078982 -0.006043 -0.996857
vn -0.715659 0.120182 -0.687979
vn -0.120090 0.051271 -0.991424
vn -0.049623 0.094485 -0.994263
vn 0.078280 -0.038423 -0.996185
vn 0.726768 0.015229 -0.686666
vn -0.086489 -0.044893 -0.995209
vn -0.027039 -0.047426 -0.998505
vn 0.078127 -0.185949 -0.979430
vn -0.018983 -0.118564 -0.992737
vn 0.125980 -0.750603 -0.648579
vn -0.562578 -0.574908 -0.594104
vn -0.019166 -0.696982 -0.716788
vn 0.158757 0.987274 -0.008881
vn 0.079287 0.994934 -0.061281
vn 0.012574 0.999451 -0.030305
vn 0.010132 0.988403 -0.151494
vn -0.120518 0.992523 -0.018983
vn -0.123630 0.988250 -0.089511
vn 0.153752 0.987518 0.033296
vn -0.013245 0.994842 0.100375
vn -0.118046 0.986938 0.109409
vn -0.158147 0.658742 0.735527
vn 0.178808 0.694082 0.697287
vn -0.143315 0.667684 -0.730491
vn -0.644215 0.560259 -0.520615
vn -0.995361 0.086703 0.040925
vn -0.997589 0.062685 -0.028901
vn -0.999512 0.020997 0.022736
vn -0.999054 0.026765 -0.033815
vn -0.996826 -0.062166 0.049165
vn -0.998199 -0.056642 -0.019013
vn -0.658742 -0.750023 0.058931
vn -0.718253 0.681234 0.141392
vn -0.546037 0.615802 0.567980
vn -0.006684 -0.999573 0.027711
vn -0.655110 -0.754112 0.045747
vn -0.999573 -0.009491 -0.026551
vn -0.998840 0.037294 -0.029481
vn -0.994446 0.091800 -0.051271
vn -0.732292 0.064058 -0.677938
vn -0.664113 -0.044710 -0.746269
vn -0.704886 0.703146 -0.093265
vn -0.747124 0.662252 -0.056459
vn -0.043001 -0.998932 -0.015961
vn 0.041658 -0.717154 -0.695639
vn 0.021058 -0.999695 -0.011261
vn 0.068026 -0.994049 -0.084964
vn 0.538591 -0.605365 -0.586016
vn 0.671896 -0.723808 -0.156865
vn -0.024934 -0.998505 0.048433
vn 0.714743 -0.699271 0.010376
vn -0.004517 -0.999329 0.036073
vn -0.723472 -0.689169 -0.039827
vn 0.997528 -0.067751 0.018342
vn 0.990051 -0.122776 -0.068300
vn 0.997131 0.042817 -0.062044
vn 0.996979 0.031220 0.070681
vn 0.992096 0.102908 -0.071352
vn 0.683065 -0.176214 -0.708731
vn 0.689535 0.723777 -0.025422
vn 0.626850 0.518052 0.581927
vn 0.709647 0.040010 0.703391
usemtl KillerFrostIceBlock
s 1
f 67/1/1 65/2/2 68/3/3
f 65/2/2 67/1/1 64/4/4
f 66/5/5 64/4/4 67/1/1
f 70/6/6 30/7/7 54/8/8
f 30/7/7 53/9/9 54/8/8
f 28/10/10 53/9/9 30/7/7
f 28/10/10 52/11/11 53/9/9
f 30/7/7 29/12/12 28/10/10
f 29/12/12 30/7/7 31/13/13
f 33/14/14 29/12/12 31/13/13
f 32/15/15 29/12/12 33/14/14
f 32/15/15 24/16/16 29/12/12
f 24/16/16 28/10/10 29/12/12
f 28/10/10 24/16/16 23/17/17
f 21/18/18 23/17/17 24/16/16
f 23/17/17 21/18/18 22/19/19
f 23/17/17 52/11/11 28/10/10
f 23/17/17 56/20/20 52/11/11
f 22/19/19 56/20/20 23/17/17
f 20/21/21 56/20/20 22/19/19
f 21/18/18 20/21/21 22/19/19
f 19/22/22 20/21/21 21/18/18
f 26/23/23 19/22/22 21/18/18
f 27/24/24 19/22/22 26/23/23
f 26/23/23 38/25/25 27/24/24
f 38/25/25 26/23/23 39/26/26
f 34/27/27 32/15/15 35/28/28
f 32/15/15 34/27/27 25/29/29
f 39/26/26 25/29/29 34/27/27
f 25/29/29 39/26/26 26/23/23
f 21/18/18 25/29/29 26/23/23
f 25/29/29 21/18/18 24/16/16
f 24/16/16 32/15/15 25/29/29
f 35/28/28 37/30/30 34/27/27
f 33/14/14 35/28/28 32/15/15
f 12/31/31 9/32/32 13/33/33
f 14/34/34 12/31/31 13/33/33
f 12/31/31 14/34/34 15/35/35
f 4/36/36 7/37/37 8/38/38
f 8/38/38 9/32/32 10/39/39
f 9/32/32 12/31/31 10/39/39
f 11/40/40 10/39/39 12/31/31
f 15/35/35 11/40/40 12/31/31
f 11/40/40 15/35/35 16/41/41
f 5/42/42 2/43/43 4/36/36
f 8/38/38 5/42/42 4/36/36
f 5/42/42 8/38/38 10/39/39
f 10/39/39 11/40/40 5/42/42
f 18/44/44 5/42/42 11/40/40
f 5/42/42 18/44/44 6/45/45
f 2/43/43 5/42/42 6/45/45
f 16/41/41 18/44/44 11/40/40
f 17/46/46 6/45/45 18/44/44
f 1/47/47 2/43/43 3/48/48
f 73/49/49 71/50/50 74/51/51
f 74/51/51 71/50/50 72/52/52
f 72/52/52 78/53/53 74/51/51
f 78/53/53 72/52/52 76/54/54
f 74/51/51 82/55/55 73/49/49
f 82/55/55 74/51/51 79/56/56
f 78/53/53 79/56/56 74/51/51
f 79/56/56 78/53/53 80/57/57
f 81/58/58 79/56/56 80/57/57
f 79/56/56 83/59/59 82/55/55
f 72/52/52 75/60/60 76/54/54
f 77/61/61 76/54/54 75/60/60
f 97/62/62 89/63/63 94/64/64
f 94/64/64 89/63/63 88/65/65
f 94/64/64 88/65/65 95/66/66
f 95/66/66 88/65/65 93/67/67
f 95/66/66 93/67/67 55/68/68
f 96/69/69 89/63/63 97/62/62
f 97/62/62 98/70/70 96/69/69
f 20/21/21 95/66/66 55/68/68
f 56/20/20 20/21/21 55/68/68
f 44/71/71 55/68/68 46/72/72
f 55/68/68 93/67/67 46/72/72
f 93/67/67 91/73/73 46/72/72
f 93/67/67 86/74/74 91/73/73
f 88/65/65 86/74/74 93/67/67
f 88/65/65 85/75/75 86/74/74
f 85/75/75 88/65/65 89/63/63
f 91/73/73 87/76/76 92/77/77
f 87/76/76 91/73/73 86/74/74
f 89/63/63 84/78/78 85/75/75
f 90/79/79 84/78/78 89/63/63
f 89/63/63 96/69/69 90/79/79
f 40/80/80 42/81/81 43/82/82
f 47/83/83 48/84/84 49/85/85
f 50/86/86 49/85/85 51/87/87
f 49/85/85 50/86/86 47/83/83
f 45/88/88 47/83/83 50/86/86
f 47/83/83 45/88/88 43/82/82
f 44/71/71 43/82/82 45/88/88
f 43/82/82 44/71/71 40/80/80
f 46/72/72 40/80/80 44/71/71
f 40/80/80 46/72/72 41/89/89
f 46/72/72 91/73/73 41/89/89
f 55/68/68 44/71/71 56/20/20
f 44/71/71 52/11/11 56/20/20
f 52/11/11 44/71/71 45/88/88
f 52/11/11 45/88/88 53/9/9
f 53/9/9 45/88/88 50/86/86
f 53/9/9 50/86/86 54/8/8
f 54/8/8 50/86/86 51/87/87
f 60/90/90 54/8/8 51/87/87
f 49/85/85 60/90/90 51/87/87
f 60/90/90 49/85/85 57/91/91
f 59/92/92 60/90/90 57/91/91
f 60/90/90 59/92/92 61/93/93
f 62/94/94 61/93/93 59/92/92
f 61/93/93 62/94/94 64/4/4
f 64/4/4 66/5/5 61/93/93
f 70/6/6 61/93/93 66/5/5
f 61/93/93 70/6/6 60/90/90
f 54/8/8 60/90/90 70/6/6
f 49/85/85 48/84/84 57/91/91
f 57/91/91 48/84/84 58/95/95
f 58/95/95 59/92/92 57/91/91
f 65/2/2 62/94/94 63/96/96
f 64/4/4 62/94/94 65/2/2
f 36/97/97 67/1/1 68/3/3
f 69/98/98 67/1/1 36/97/97
f 33/99/14 67/1/1 69/98/98
f 67/1/1 33/99/14 66/5/5
f 33/99/14 70/6/6 66/5/5
f 31/100/13 70/6/6 33/99/14
f 30/7/7 70/6/6 31/100/13
f 39/26/26 98/101/70 38/25/25
f 98/101/70 39/26/26 81/102/58
f 34/27/27 81/102/58 39/26/26
f 81/102/58 34/27/27 37/30/30
f 37/30/30 35/28/28 83/103/59
f 83/103/59 35/28/28 36/104/97
f 36/104/97 35/28/28 69/105/98
f 35/28/28 33/14/14 69/105/98
f 7/37/37 4/36/36 87/106/76
f 77/107/61 8/38/38 7/37/37
f 8/38/38 77/107/61 75/108/60
f 9/32/32 8/38/38 75/108/60
f 87/106/76 2/43/43 92/109/77
f 2/43/43 87/106/76 4/36/36
f 18/44/44 16/41/41 58/110/95
f 48/111/84 18/44/44 58/110/95
f 18/44/44 48/111/84 17/46/46
f 6/45/45 17/46/46 42/112/81
f 42/112/81 2/43/43 6/45/45
f 2/43/43 42/112/81 3/48/48
f 2/43/43 1/47/47 92/109/77
f 71/50/50 65/113/2 63/114/96
f 65/113/2 82/55/55 68/115/3
f 82/55/55 65/113/2 73/49/49
f 65/113/2 71/50/50 73/49/49
f 96/116/69 78/53/53 90/117/79
f 80/57/57 78/53/53 96/116/69
f 98/118/70 80/57/57 96/116/69
f 81/58/58 80/57/57 98/118/70
f 37/119/30 79/56/56 81/58/58
f 83/59/59 79/56/56 37/119/30
f 36/120/97 82/55/55 83/59/59
f 82/55/55 36/120/97 68/115/3
f 14/121/34 71/50/50 63/114/96
f 71/50/50 14/121/34 13/122/33
f 9/123/32 71/50/50 13/122/33
f 71/50/50 9/123/32 72/52/52
f 75/60/60 72/52/52 9/123/32
f 76/54/54 77/61/61 84/124/78
f 84/124/78 78/53/53 76/54/54
f 78/53/53 84/124/78 90/117/79
f 98/70/70 97/62/62 38/125/25
f 94/64/64 38/125/25 97/62/62
f 38/125/25 94/64/64 27/126/24
f 27/126/24 94/64/64 19/127/22
f 19/127/22 94/64/64 95/66/66
f 19/127/22 95/66/66 20/21/21
f 1/128/47 91/73/73 92/77/77
f 86/74/74 7/129/37 87/76/76
f 85/75/75 7/129/37 86/74/74
f 85/75/75 77/130/61 7/129/37
f 84/78/78 77/130/61 85/75/75
f 1/128/47 40/80/80 41/89/89
f 40/80/80 1/128/47 3/131/48
f 42/81/81 40/80/80 3/131/48
f 17/132/46 43/82/82 42/81/81
f 43/82/82 17/132/46 47/83/83
f 48/84/84 47/83/83 17/132/46
f 91/73/73 1/128/47 41/89/89
f 59/92/92 58/95/95 16/133/41
f 15/134/35 59/92/92 16/133/41
f 59/92/92 15/134/35 62/94/94
f 14/135/34 62/94/94 15/134/35
f 62/94/94 14/135/34 63/96/96
