# Blender v2.78 (sub 0) OBJ File: ''
# www.blender.org
mtllib skybox.mtl
o Cube_Cube.001
v -1.000000 -1.000000 1.000000
v -1.000000 1.000000 1.000000
v -1.000000 -1.000000 -1.000000
v -1.000000 1.000000 -1.000000
v 1.000000 -1.000000 1.000000
v 1.000000 1.000000 1.000000
v 1.000000 -1.000000 -1.000000
v 1.000000 1.000000 -1.000000
vt 0.0002 0.3333
vt 0.2500 0.3333
vt 0.2500 0.6667
vt 0.0002 0.6667
vt 0.5000 0.3333
vt 0.5000 0.6667
vt 0.7491 0.3333
vt 0.5000 0.3333
vt 0.5000 0.6667
vt 0.7491 0.6667
vt 1.0000 0.3333
vt 0.7491 0.3333
vt 0.7491 0.6667
vt 1.0000 0.6667
vt 0.2500 0.0002
vt 0.5000 0.0002
vt 0.5000 1.0000
vt 0.2500 0.6667
vt 0.2500 1.0000
vn 1.0000 0.0000 0.0000
vn 0.0000 0.0000 1.0000
vn -1.0000 0.0000 0.0000
vn 0.0000 0.0000 -1.0000
vn 0.0000 1.0000 0.0000
vn 0.0000 -1.0000 0.0000
usemtl None
s off
f 1/1/1 3/2/1 4/3/1 2/4/1
f 3/2/2 7/5/2 8/6/2 4/3/2
f 7/7/3 5/8/3 6/9/3 8/10/3
f 5/11/4 1/12/4 2/13/4 6/14/4
f 3/2/5 1/15/5 5/16/5 7/5/5
f 8/17/6 6/9/6 2/18/6 4/19/6
