# Blender v2.78 (sub 0) OBJ File: ''
# www.blender.org
mtllib skybox-flip.mtl
o Cube_Cube.001
v -1.000000 -1.000000 1.000000
v -1.000000 1.000000 1.000000
v -1.000000 -1.000000 -1.000000
v -1.000000 1.000000 -1.000000
v 1.000000 -1.000000 1.000000
v 1.000000 1.000000 1.000000
v 1.000000 -1.000000 -1.000000
v 1.000000 1.000000 -1.000000
vt 0.0012 0.3331
vt 0.0012 0.6646
vt 0.2498 0.6646
vt 0.2498 0.3331
vt 0.2532 0.3350
vt 0.2532 0.6661
vt 0.5018 0.6661
vt 0.5019 0.3350
vt 0.7528 0.3334
vt 0.7528 0.6649
vt 0.5041 0.6649
vt 0.5041 0.3334
vt 1.0035 0.3300
vt 1.0035 0.6615
vt 0.7548 0.6615
vt 0.7548 0.3300
vt 0.5019 0.0035
vt 0.2532 0.0035
vt 0.5009 0.9969
vt 0.2523 0.9969
vt 0.2523 0.6654
vt 0.5009 0.6654
vn -1.0000 0.0000 0.0000
vn 0.0000 0.0000 -1.0000
vn 1.0000 0.0000 0.0000
vn 0.0000 0.0000 1.0000
vn 0.0000 -1.0000 0.0000
vn 0.0000 1.0000 0.0000
usemtl None
s off
f 1/1/1 2/2/1 4/3/1 3/4/1
f 3/5/2 4/6/2 8/7/2 7/8/2
f 7/9/3 8/10/3 6/11/3 5/12/3
f 5/13/4 6/14/4 2/15/4 1/16/4
f 3/5/5 7/8/5 5/17/5 1/18/5
f 8/19/6 4/20/6 2/21/6 6/22/6
