# Blender v2.78 (sub 0) OBJ File: ''
# www.blender.org
mtllib skybox2.mtl
o Cube
v 1.000000 -1.000000 -1.000000
v 1.000000 -1.000000 1.000000
v -1.000000 -1.000000 1.000000
v -1.000000 -1.000000 -1.000000
v 1.000000 1.000000 -0.999999
v 0.999999 1.000000 1.000001
v -1.000000 1.000000 1.000000
v -1.000000 1.000000 -1.000000
vt 0.0001 0.9999
vt 0.0001 0.0001
vt 0.9999 0.0001
vt 0.9999 0.9999
vt 0.9999 0.9999
vt 0.0001 0.9999
vt 0.0001 0.0001
vt 0.9999 0.0001
vt 0.9999 0.9999
vt 0.0001 0.9999
vt 0.9999 0.0001
vt 0.9999 0.9999
vt 0.0001 0.9999
vt 0.0001 0.0001
vt 0.0001 0.0001
vt 0.9999 0.0001
vt 0.0001 0.9999
vt 0.0001 0.0001
vt 0.9999 0.0001
vt 0.9999 0.9999
vn 0.0000 -1.0000 0.0000
vn -1.0000 -0.0000 -0.0000
vn 1.0000 0.0000 0.0000
vn -0.0000 -0.0000 1.0000
vn 0.0000 1.0000 0.0000
vn 0.0000 0.0000 -1.0000
usemtl Material
s off
f 1/1/1 2/2/1 3/3/1 4/4/1
usemtl Material_posx.jpg
f 3/3/2 7/5/2 8/6/2 4/7/2
usemtl Material_negx.jpg
f 1/8/3 5/9/3 6/10/3 2/2/3
usemtl Material_negz.jpg
f 2/11/4 6/12/4 7/13/4 3/14/4
usemtl Material_posy.jpg
f 5/15/5 8/16/5 7/5/5 6/10/5
usemtl Material_posz.jpg
f 5/17/6 1/18/6 4/19/6 8/20/6
