# Blender v2.78 (sub 0) OBJ File: ''
# www.blender.org
mtllib crate.mtl
o pCube8_Untitled.001
v -0.413000 0.935003 0.413000
v 0.413000 0.935003 0.413000
v 0.413000 0.935003 -0.413000
v -0.413000 0.935003 -0.413000
v -0.413000 0.087000 0.435003
v 0.413000 0.087000 0.435003
v 0.413000 0.913000 0.435003
v -0.413000 0.913000 0.435003
v 0.413000 0.087000 -0.435003
v -0.413000 0.087000 -0.435003
v -0.413000 0.913000 -0.435003
v 0.413000 0.913000 -0.435003
v 0.435003 0.913000 0.413000
v 0.435003 0.087000 0.413000
v 0.435003 0.087000 -0.413000
v 0.435003 0.913000 -0.413000
v -0.435003 0.913000 -0.413000
v -0.435003 0.087000 -0.413000
v -0.435003 0.087000 0.413000
v -0.435003 0.913000 0.413000
v -0.413000 0.064997 -0.413000
v 0.413000 0.064997 -0.413000
v 0.413000 0.064997 0.413000
v -0.413000 0.064997 0.413000
v -0.493501 0.993501 0.500000
v -0.493501 1.000000 0.493501
v -0.500000 0.993501 0.493501
v 0.493501 1.000000 0.493501
v 0.493501 0.993501 0.500000
v 0.500000 0.993501 0.493501
v -0.493501 1.000000 -0.493501
v -0.493501 0.993501 -0.500000
v -0.500000 0.993501 -0.493501
v 0.493501 0.993501 -0.500000
v 0.493501 1.000000 -0.493501
v 0.500000 0.993501 -0.493501
v -0.419499 1.000000 0.419499
v -0.413000 0.993501 0.413000
v 0.419499 1.000000 0.419499
v 0.413000 0.993501 0.413000
v 0.419499 1.000000 -0.419499
v 0.413000 0.993501 -0.413000
v -0.419499 1.000000 -0.419499
v -0.413000 0.993501 -0.413000
v -0.493501 0.006499 0.500000
v -0.500000 0.006499 0.493501
v -0.493501 -0.000000 0.493501
v 0.500000 0.006499 0.493501
v 0.493501 0.006499 0.500000
v 0.493501 -0.000000 0.493501
v -0.419499 0.080501 0.500000
v -0.413000 0.087000 0.493501
v 0.419499 0.080501 0.500000
v 0.413000 0.087000 0.493501
v 0.419499 0.919499 0.500000
v 0.413000 0.913000 0.493501
v -0.419499 0.919499 0.500000
v -0.413000 0.913000 0.493501
v 0.493501 0.006499 -0.500000
v 0.500000 0.006499 -0.493501
v 0.493501 0.000000 -0.493501
v -0.500000 0.006499 -0.493501
v -0.493501 0.006499 -0.500000
v -0.493501 0.000000 -0.493501
v 0.419499 0.080501 -0.500000
v 0.413000 0.087000 -0.493501
v -0.419499 0.080501 -0.500000
v -0.413000 0.087000 -0.493501
v -0.419499 0.919499 -0.500000
v -0.413000 0.913000 -0.493501
v 0.419499 0.919499 -0.500000
v 0.413000 0.913000 -0.493501
v 0.500000 0.919499 0.419499
v 0.493501 0.913000 0.413000
v 0.500000 0.080501 0.419499
v 0.493501 0.087000 0.413000
v 0.500000 0.080501 -0.419499
v 0.493501 0.087000 -0.413000
v 0.500000 0.919499 -0.419499
v 0.493501 0.913000 -0.413000
v -0.500000 0.919499 -0.419499
v -0.493501 0.913000 -0.413000
v -0.500000 0.080501 -0.419499
v -0.493501 0.087000 -0.413000
v -0.500000 0.080501 0.419499
v -0.493501 0.087000 0.413000
v -0.500000 0.919499 0.419499
v -0.493501 0.913000 0.413000
v -0.419499 0.000000 -0.419499
v -0.413000 0.006499 -0.413000
v 0.419499 0.000000 -0.419499
v 0.413000 0.006499 -0.413000
v 0.419499 -0.000000 0.419499
v 0.413000 0.006499 0.413000
v -0.419499 -0.000000 0.419499
v -0.413000 0.006499 0.413000
vt 0.0935 0.0935
vt 0.9065 0.0935
vt 0.0935 0.9065
vt 0.9065 0.9065
vt 0.0935 0.0935
vt 0.9065 0.0935
vt 0.0935 0.9065
vt 0.9065 0.9065
vt 0.0935 0.0935
vt 0.9065 0.0935
vt 0.0935 0.9065
vt 0.9065 0.9065
vt 0.0935 0.9065
vt 0.0935 0.0935
vt 0.9065 0.9065
vt 0.9065 0.0935
vt 0.0935 0.9065
vt 0.0935 0.0935
vt 0.9065 0.9065
vt 0.9065 0.0935
vt 0.0935 0.0935
vt 0.9065 0.0935
vt 0.0935 0.9065
vt 0.9065 0.9065
vt 0.0070 0.9930
vt 0.0000 0.9935
vt 0.0070 0.0070
vt 0.0000 0.0065
vt 0.0070 0.0070
vt 0.0065 0.0000
vt 0.9930 0.0070
vt 0.9935 0.0000
vt 0.0000 0.0065
vt 0.0000 0.9935
vt 0.0070 0.9930
vt 1.0000 0.0065
vt 0.9930 0.9930
vt 1.0000 0.9935
vt 1.0000 0.9935
vt 0.9930 0.9930
vt 1.0000 0.0065
vt 0.9930 0.0070
vt 0.0065 1.0000
vt 0.9935 1.0000
vt 1.0000 0.9935
vt 0.9930 0.9930
vt 1.0000 0.0065
vt 0.9930 0.0070
vt 0.0070 0.9930
vt 0.0000 0.9935
vt 0.0070 0.0070
vt 0.0000 0.0065
vt 0.0865 0.0865
vt 0.0935 0.0935
vt 0.0865 0.9135
vt 0.0935 0.9065
vt 0.9065 0.0935
vt 0.9135 0.0865
vt 0.9065 0.9065
vt 0.9135 0.9135
vt 0.0065 0.0000
vt 0.9935 0.0000
vt 1.0000 0.9935
vt 0.9930 0.9930
vt 1.0000 0.0065
vt 0.9930 0.0070
vt 0.9930 0.0070
vt 1.0000 0.0065
vt 0.9930 0.9930
vt 1.0000 0.9935
vt 0.0865 0.0865
vt 0.0935 0.0935
vt 0.0865 0.9135
vt 0.0935 0.9065
vt 0.9065 0.0935
vt 0.9135 0.0865
vt 0.9065 0.9065
vt 0.9135 0.9135
vt 0.0065 0.0000
vt 0.9935 0.0000
vt 0.0865 0.0865
vt 0.0935 0.0935
vt 0.0865 0.9135
vt 0.0935 0.9065
vt 0.9065 0.0935
vt 0.9135 0.0865
vt 0.9065 0.9065
vt 0.9135 0.9135
vt 0.0865 0.0865
vt 0.0935 0.0935
vt 0.0865 0.9135
vt 0.0935 0.9065
vt 0.9065 0.0935
vt 0.9135 0.0865
vt 0.9065 0.9065
vt 0.9135 0.9135
vt 0.0865 0.0865
vt 0.0935 0.0935
vt 0.0865 0.9135
vt 0.0935 0.9065
vt 0.9065 0.0935
vt 0.9135 0.0865
vt 0.9065 0.9065
vt 0.9135 0.9135
vt 0.0865 0.0865
vt 0.0935 0.0935
vt 0.0865 0.9135
vt 0.0935 0.9065
vt 0.9065 0.0935
vt 0.9135 0.0865
vt 0.9065 0.9065
vt 0.9135 0.9135
vt 0.9065 0.0842
vt 0.0935 0.0842
vt 0.9065 0.0000
vt 0.0935 0.0000
vt 0.9906 0.0935
vt 0.9906 0.9065
vt 0.9065 0.9906
vt 0.0935 0.9906
vt 0.0094 0.9065
vt 0.0094 0.0935
vt 0.9065 0.0842
vt 0.0935 0.0842
vt 0.9065 0.0000
vt 0.0935 0.0000
vt 0.9906 0.0935
vt 0.9906 0.9065
vt 0.9065 0.9906
vt 0.0935 0.9906
vt 0.0094 0.9065
vt 0.0094 0.0935
vt 0.9065 0.0842
vt 0.0935 0.0842
vt 0.9065 0.0000
vt 0.0935 0.0000
vt 0.9906 0.0935
vt 0.9906 0.9065
vt 0.9065 0.9906
vt 0.0935 0.9906
vt 0.0094 0.9065
vt 0.0094 0.0935
vt 0.0070 0.0070
vt 0.0070 0.9930
vt 0.9065 0.0842
vt 0.0935 0.0842
vt 0.9065 0.0000
vt 0.0935 0.0000
vt 0.9906 0.0935
vt 0.9906 0.9065
vt 0.9065 0.0935
vt 0.9065 0.9065
vt 0.9065 0.9906
vt 0.0935 0.9906
vt 0.0935 0.9065
vt 0.0094 0.9065
vt 0.0094 0.0935
vt 0.0935 0.0935
vt 0.0070 0.0070
vt 0.0070 0.9930
vt 0.9065 0.0842
vt 0.0935 0.0842
vt 0.9065 0.0000
vt 0.0935 0.0000
vt 0.9906 0.0935
vt 0.9906 0.9065
vt 0.9065 0.0935
vt 0.9065 0.9065
vt 0.9065 0.9906
vt 0.0935 0.9906
vt 0.0935 0.9065
vt 0.0094 0.9065
vt 0.0094 0.0935
vt 0.0935 0.0935
vt 0.0070 0.0070
vt 0.9930 0.0070
vt 0.9930 0.9930
vt 0.0070 0.9930
vt 0.9065 0.0842
vt 0.0935 0.0842
vt 0.9065 0.0000
vt 0.0935 0.0000
vt 0.9906 0.0935
vt 0.9906 0.9065
vt 0.9065 0.9906
vt 0.0935 0.9906
vt 0.0094 0.9065
vt 0.0094 0.0935
vt 0.0069 0.0069
vt 0.9931 0.0069
vt 0.0069 0.9931
vt 0.9931 0.9931
vt 0.0069 0.0069
vt 0.9931 0.0069
vt 0.0069 0.0069
vt 0.9931 0.0069
vn 0.0000 1.0000 0.0000
vn 0.0000 -0.0000 1.0000
vn 0.0000 0.0000 -1.0000
vn 1.0000 -0.0000 0.0000
vn -1.0000 0.0000 0.0000
vn 0.0000 -1.0000 -0.0000
vn -0.7071 -0.0000 0.7071
vn 0.0000 0.7071 0.7071
vn -0.7071 0.7071 0.0000
vn 0.7071 0.7071 0.0000
vn 0.7071 -0.0000 0.7071
vn 0.0000 0.7071 -0.7071
vn -0.7071 0.0000 -0.7071
vn 0.7071 0.0000 -0.7071
vn 0.0000 -0.7071 0.7071
vn -0.7071 -0.7071 -0.0000
vn 0.7071 -0.7071 -0.0000
vn 0.0000 -0.7071 -0.7071
vn -0.5773 0.5774 0.5774
vn 0.5773 0.5774 0.5774
vn -0.5773 0.5774 -0.5774
vn 0.5773 0.5774 -0.5774
vn -0.5773 -0.5774 0.5773
vn 0.5773 -0.5774 0.5773
vn 0.5773 -0.5774 -0.5773
vn -0.5773 -0.5774 -0.5773
usemtl lambert2.001
s 1
f 1/1/1 2/2/1 4/3/1
f 4/3/1 2/2/1 3/4/1
f 5/5/2 6/6/2 8/7/2
f 8/7/2 6/6/2 7/8/2
f 9/9/3 10/10/3 12/11/3
f 12/11/3 10/10/3 11/12/3
f 13/13/4 14/14/4 16/15/4
f 16/15/4 14/14/4 15/16/4
f 17/17/5 18/18/5 20/19/5
f 20/19/5 18/18/5 19/20/5
f 21/21/6 22/22/6 24/23/6
f 24/23/6 22/22/6 23/24/6
f 25/25/7 27/26/7 45/27/7
f 45/27/7 27/26/7 46/28/7
f 26/29/8 25/30/8 28/31/8
f 28/31/8 25/30/8 29/32/8
f 27/33/9 26/29/9 33/34/9
f 33/34/9 26/29/9 31/35/9
f 28/31/10 30/36/10 35/37/10
f 35/37/10 30/36/10 36/38/10
f 30/39/11 29/40/11 48/41/11
f 48/41/11 29/40/11 49/42/11
f 32/43/12 31/35/12 34/44/12
f 34/44/12 31/35/12 35/37/12
f 33/45/13 32/46/13 62/47/13
f 62/47/13 32/46/13 63/48/13
f 34/49/14 36/50/14 59/51/14
f 59/51/14 36/50/14 60/52/14
f 37/53/10 38/54/10 43/55/10
f 43/55/10 38/54/10 44/56/10
f 38/54/12 37/53/12 40/57/12
f 40/57/12 37/53/12 39/58/12
f 40/57/9 39/58/9 42/59/9
f 42/59/9 39/58/9 41/60/9
f 42/59/8 41/60/8 44/56/8
f 44/56/8 41/60/8 43/55/8
f 45/27/15 47/61/15 49/42/15
f 49/42/15 47/61/15 50/62/15
f 47/63/16 46/64/16 64/65/16
f 64/65/16 46/64/16 62/66/16
f 48/67/17 50/68/17 60/69/17
f 60/69/17 50/68/17 61/70/17
f 51/71/11 52/72/11 57/73/11
f 57/73/11 52/72/11 58/74/11
f 52/72/8 51/71/8 54/75/8
f 54/75/8 51/71/8 53/76/8
f 54/75/7 53/76/7 56/77/7
f 56/77/7 53/76/7 55/78/7
f 56/77/15 55/78/15 58/74/15
f 58/74/15 55/78/15 57/73/15
f 59/51/18 61/79/18 63/48/18
f 63/48/18 61/79/18 64/80/18
f 65/81/13 66/82/13 71/83/13
f 71/83/13 66/82/13 72/84/13
f 66/82/12 65/81/12 68/85/12
f 68/85/12 65/81/12 67/86/12
f 68/85/14 67/86/14 70/87/14
f 70/87/14 67/86/14 69/88/14
f 70/87/18 69/88/18 72/84/18
f 72/84/18 69/88/18 71/83/18
f 73/89/17 74/90/17 79/91/17
f 79/91/17 74/90/17 80/92/17
f 74/90/14 73/89/14 76/93/14
f 76/93/14 73/89/14 75/94/14
f 76/93/10 75/94/10 78/95/10
f 78/95/10 75/94/10 77/96/10
f 78/95/11 77/96/11 80/92/11
f 80/92/11 77/96/11 79/91/11
f 81/97/16 82/98/16 87/99/16
f 87/99/16 82/98/16 88/100/16
f 82/98/7 81/97/7 84/101/7
f 84/101/7 81/97/7 83/102/7
f 84/101/9 83/102/9 86/103/9
f 86/103/9 83/102/9 85/104/9
f 86/103/13 85/104/13 88/100/13
f 88/100/13 85/104/13 87/99/13
f 89/105/17 90/106/17 95/107/17
f 95/107/17 90/106/17 96/108/17
f 90/106/15 89/105/15 92/109/15
f 92/109/15 89/105/15 91/110/15
f 92/109/16 91/110/16 94/111/16
f 94/111/16 91/110/16 93/112/16
f 94/111/18 93/112/18 96/108/18
f 96/108/18 93/112/18 95/107/18
f 26/29/1 28/31/1 37/53/1
f 37/53/1 28/31/1 39/58/1
f 28/31/1 35/37/1 39/58/1
f 39/58/1 35/37/1 41/60/1
f 35/37/1 31/35/1 41/60/1
f 41/60/1 31/35/1 43/55/1
f 31/35/1 26/29/1 43/55/1
f 43/55/1 26/29/1 37/53/1
f 38/113/3 40/114/3 1/115/3
f 1/115/3 40/114/3 2/116/3
f 40/117/5 42/118/5 2/2/5
f 2/2/5 42/118/5 3/4/5
f 42/119/2 44/120/2 3/4/2
f 3/4/2 44/120/2 4/3/2
f 44/121/4 38/122/4 4/3/4
f 4/3/4 38/122/4 1/1/4
f 45/27/2 49/42/2 51/71/2
f 51/71/2 49/42/2 53/76/2
f 49/42/2 29/40/2 53/76/2
f 53/76/2 29/40/2 55/78/2
f 29/40/2 25/25/2 55/78/2
f 55/78/2 25/25/2 57/73/2
f 25/25/2 45/27/2 57/73/2
f 57/73/2 45/27/2 51/71/2
f 52/123/1 54/124/1 5/125/1
f 5/125/1 54/124/1 6/126/1
f 54/127/5 56/128/5 6/6/5
f 6/6/5 56/128/5 7/8/5
f 56/129/6 58/130/6 7/8/6
f 7/8/6 58/130/6 8/7/6
f 58/131/4 52/132/4 8/7/4
f 8/7/4 52/132/4 5/5/4
f 59/51/3 63/48/3 65/81/3
f 65/81/3 63/48/3 67/86/3
f 63/48/3 32/46/3 67/86/3
f 67/86/3 32/46/3 69/88/3
f 32/46/3 34/49/3 69/88/3
f 69/88/3 34/49/3 71/83/3
f 34/49/3 59/51/3 71/83/3
f 71/83/3 59/51/3 65/81/3
f 66/133/1 68/134/1 9/135/1
f 9/135/1 68/134/1 10/136/1
f 68/137/4 70/138/4 10/10/4
f 10/10/4 70/138/4 11/12/4
f 70/139/6 72/140/6 11/12/6
f 11/12/6 72/140/6 12/11/6
f 72/141/5 66/142/5 12/11/5
f 12/11/5 66/142/5 9/9/5
f 30/143/4 48/67/4 73/89/4
f 73/89/4 48/67/4 75/94/4
f 48/67/4 60/69/4 75/94/4
f 75/94/4 60/69/4 77/96/4
f 60/69/4 36/144/4 77/96/4
f 77/96/4 36/144/4 79/91/4
f 36/144/4 30/143/4 79/91/4
f 79/91/4 30/143/4 73/89/4
f 74/145/3 76/146/3 13/147/3
f 13/147/3 76/146/3 14/148/3
f 76/149/1 78/150/1 14/151/1
f 14/151/1 78/150/1 15/152/1
f 78/153/2 80/154/2 15/152/2
f 15/152/2 80/154/2 16/155/2
f 80/156/6 74/157/6 16/155/6
f 16/155/6 74/157/6 13/158/6
f 33/159/5 62/66/5 81/97/5
f 81/97/5 62/66/5 83/102/5
f 62/66/5 46/64/5 83/102/5
f 83/102/5 46/64/5 85/104/5
f 46/64/5 27/160/5 85/104/5
f 85/104/5 27/160/5 87/99/5
f 27/160/5 33/159/5 87/99/5
f 87/99/5 33/159/5 81/97/5
f 82/161/2 84/162/2 17/163/2
f 17/163/2 84/162/2 18/164/2
f 84/165/1 86/166/1 18/167/1
f 18/167/1 86/166/1 19/168/1
f 86/169/3 88/170/3 19/168/3
f 19/168/3 88/170/3 20/171/3
f 88/172/6 82/173/6 20/171/6
f 20/171/6 82/173/6 17/174/6
f 64/175/6 61/176/6 89/105/6
f 89/105/6 61/176/6 91/110/6
f 61/176/6 50/177/6 91/110/6
f 91/110/6 50/177/6 93/112/6
f 50/177/6 47/178/6 93/112/6
f 93/112/6 47/178/6 95/107/6
f 47/178/6 64/175/6 95/107/6
f 95/107/6 64/175/6 89/105/6
f 90/179/2 92/180/2 21/181/2
f 21/181/2 92/180/2 22/182/2
f 92/183/5 94/184/5 22/22/5
f 22/22/5 94/184/5 23/24/5
f 94/185/3 96/186/3 23/24/3
f 23/24/3 96/186/3 24/23/3
f 96/187/4 90/188/4 24/23/4
f 24/23/4 90/188/4 21/21/4
f 25/30/19 26/29/19 27/189/19
f 28/31/20 29/190/20 30/36/20
f 31/35/21 32/191/21 33/34/21
f 34/44/22 35/37/22 36/192/22
f 45/27/23 46/193/23 47/61/23
f 48/41/24 49/42/24 50/194/24
f 59/51/25 60/195/25 61/79/25
f 62/47/26 63/48/26 64/196/26
