# Blender v2.78 (sub 0) OBJ File: ''
# www.blender.org
mtllib plant.mtl
o Plane.015_Plane.016
v -0.123532 0.322919 0.617733
v -0.429337 0.317907 0.477079
v -0.453216 0.243376 0.531651
v -0.147411 0.248388 0.672306
v 0.136996 -0.006359 0.063039
v -0.168809 -0.011371 -0.077615
v -0.196829 0.165859 -0.023010
v 0.108976 0.170871 0.117645
v 0.070241 0.267735 0.198408
v -0.235564 0.262723 0.057754
v -0.283919 0.351469 0.159723
v 0.021886 0.356480 0.300378
v -0.042694 0.415542 0.438680
v -0.348499 0.410530 0.298025
v -0.404031 0.383067 0.419738
v -0.098226 0.388079 0.560393
vt 0.0250 0.8705
vt 0.9975 0.8705
vt 0.9975 0.9700
vt 0.0250 0.9700
vt 0.0250 0.0795
vt 0.9975 0.0795
vt 0.9975 0.2578
vt 0.0250 0.2578
vt 0.0250 0.3695
vt 0.9975 0.3695
vt 0.9975 0.4873
vt 0.0250 0.4873
vt 0.0250 0.6336
vt 0.9975 0.6336
vt 0.9975 0.7761
vt 0.0250 0.7761
vn -0.3349 0.6242 0.7059
vn 0.3905 0.3269 -0.8606
vn 0.2477 0.7859 -0.5665
vn -0.0973 0.9795 0.1766
vn 0.1382 0.9325 -0.3337
vn 0.2977 0.6788 -0.6713
vn -0.3106 0.6931 0.6505
usemtl Fern_Mat
s 1
f 1/1/1 2/2/1 3/3/1 4/4/1
f 5/5/2 6/6/2 7/7/2 8/8/2
f 9/9/3 10/10/3 11/11/3 12/12/3
f 13/13/4 14/14/4 15/15/4 16/16/4
f 12/12/5 11/11/5 14/14/5 13/13/5
f 8/8/6 7/7/6 10/10/6 9/9/6
f 16/16/7 15/15/7 2/2/7 1/1/7
o Plane.013_Plane.014
v -0.025353 0.390530 -0.581953
v 0.301383 0.390530 -0.500904
v 0.318385 0.326370 -0.569445
v -0.008352 0.326370 -0.650493
v -0.158465 -0.031731 -0.045333
v 0.168271 -0.031731 0.035716
v 0.176085 0.152996 0.004215
v -0.150651 0.152996 -0.076834
v -0.133057 0.262839 -0.147763
v 0.193679 0.262839 -0.066714
v 0.217119 0.368354 -0.161206
v -0.109617 0.368354 -0.242255
v -0.075587 0.450862 -0.379443
v 0.251149 0.450862 -0.298395
v 0.283999 0.444943 -0.430825
v -0.042737 0.444943 -0.511874
vt 0.0250 0.8705
vt 0.9975 0.8705
vt 0.9975 0.9700
vt 0.0250 0.9700
vt 0.0250 0.0795
vt 0.9975 0.0795
vt 0.9975 0.2578
vt 0.0250 0.2578
vt 0.0250 0.3695
vt 0.9975 0.3695
vt 0.9975 0.4873
vt 0.0250 0.4873
vt 0.0250 0.6336
vt 0.9975 0.6336
vt 0.9975 0.7761
vt 0.0250 0.7761
vn 0.1619 0.7401 -0.6527
vn -0.2371 0.1730 0.9559
vn -0.1769 0.6781 0.7133
vn 0.0104 0.9991 -0.0421
vn -0.1214 0.8636 0.4893
vn -0.2005 0.5539 0.8081
vn 0.1449 0.7986 -0.5841
usemtl Fern_Mat
s 1
f 17/17/8 18/18/8 19/19/8 20/20/8
f 21/21/9 22/22/9 23/23/9 24/24/9
f 25/25/10 26/26/10 27/27/10 28/28/10
f 29/29/11 30/30/11 31/31/11 32/32/11
f 28/28/12 27/27/12 30/30/12 29/29/12
f 24/24/13 23/23/13 26/26/13 25/25/13
f 32/32/14 31/31/14 18/18/14 17/17/14
o Plane.017_Plane.018
v -0.486689 0.243588 -0.476885
v -0.195090 0.246640 -0.645069
v -0.219535 0.165508 -0.688925
v -0.511134 0.162455 -0.520741
v -0.161025 -0.009955 0.083153
v 0.130575 -0.006902 -0.085031
v 0.088229 0.161721 -0.155390
v -0.203371 0.158668 0.012794
v -0.254262 0.244116 -0.073891
v 0.037337 0.247169 -0.242076
v -0.024534 0.321768 -0.347994
v -0.316134 0.318715 -0.179810
v -0.395695 0.359076 -0.317022
v -0.104096 0.362129 -0.485206
v -0.168471 0.318841 -0.597607
v -0.460071 0.315788 -0.429423
vt 0.0250 0.8705
vt 0.9975 0.8705
vt 0.9975 0.9700
vt 0.0250 0.9700
vt 0.0250 0.0795
vt 0.9975 0.0795
vt 0.9975 0.2578
vt 0.0250 0.2578
vt 0.0250 0.3695
vt 0.9975 0.3695
vt 0.9975 0.4873
vt 0.0250 0.4873
vt 0.0250 0.6336
vt 0.9975 0.6336
vt 0.9975 0.7761
vt 0.0250 0.7761
vn -0.4290 0.5262 -0.7343
vn 0.4458 0.4377 0.7808
vn 0.2529 0.8544 0.4540
vn -0.1658 0.9484 -0.2703
vn 0.1156 0.9691 0.2180
vn 0.3176 0.7619 0.5645
vn -0.4037 0.6018 -0.6891
usemtl Fern_Mat
s 1
f 33/33/15 34/34/15 35/35/15 36/36/15
f 37/37/16 38/38/16 39/39/16 40/40/16
f 41/41/17 42/42/17 43/43/17 44/44/17
f 45/45/18 46/46/18 47/47/18 48/48/18
f 44/44/19 43/43/19 46/46/19 45/45/19
f 40/40/20 39/39/20 42/42/20 41/41/20
f 48/48/21 47/47/21 34/34/21 33/33/21
o Plane.009_Plane.010
v -0.547131 0.393739 -0.275854
v -0.307735 0.393739 -0.512529
v -0.357383 0.329579 -0.562748
v -0.596779 0.329579 -0.326073
v -0.158424 -0.028521 0.117322
v 0.080972 -0.028521 -0.119354
v 0.058153 0.156205 -0.142435
v -0.181242 0.156205 0.094241
v -0.232620 0.266048 0.042272
v 0.006776 0.266048 -0.194403
v -0.061671 0.371564 -0.263637
v -0.301067 0.371564 -0.026961
v -0.400441 0.454072 -0.127477
v -0.161045 0.454072 -0.364153
v -0.256973 0.448152 -0.461183
v -0.496369 0.448152 -0.224508
vt 0.0250 0.8705
vt 0.9975 0.8705
vt 0.9975 0.9700
vt 0.0250 0.9700
vt 0.0250 0.0795
vt 0.9975 0.0795
vt 0.9975 0.2578
vt 0.0250 0.2578
vt 0.0250 0.3695
vt 0.9975 0.3695
vt 0.9975 0.4873
vt 0.0250 0.4873
vt 0.0250 0.6336
vt 0.9975 0.6336
vt 0.9975 0.7761
vt 0.0250 0.7761
vn -0.4728 0.7401 -0.4782
vn 0.6924 0.1730 0.7004
vn 0.5167 0.6781 0.5227
vn -0.0305 0.9991 -0.0308
vn 0.3544 0.8636 0.3585
vn 0.5853 0.5539 0.5921
vn -0.4231 0.7986 -0.4280
usemtl Fern_Mat
s 1
f 49/49/22 50/50/22 51/51/22 52/52/22
f 53/53/23 54/54/23 55/55/23 56/56/23
f 57/57/24 58/58/24 59/59/24 60/60/24
f 61/61/25 62/62/25 63/63/25 64/64/25
f 60/60/26 59/59/26 62/62/26 61/61/26
f 56/56/27 55/55/27 58/58/27 57/57/27
f 64/64/28 63/63/28 50/50/28 49/49/28
o Plane.010_Plane.011
v -0.502141 0.412995 0.301280
v -0.602124 0.412995 -0.020168
v -0.669555 0.348835 0.000806
v -0.569572 0.348835 0.322254
v 0.025795 -0.009266 0.137071
v -0.074188 -0.009266 -0.184377
v -0.105180 0.175461 -0.174737
v -0.005197 0.175461 0.146711
v -0.074978 0.285304 0.168415
v -0.174961 0.285304 -0.153033
v -0.267924 0.390819 -0.124117
v -0.167941 0.390819 0.197331
v -0.302909 0.473328 0.239311
v -0.402892 0.473328 -0.082137
v -0.533179 0.467408 -0.041613
v -0.433196 0.467408 0.279836
vt 0.0250 0.8705
vt 0.9975 0.8705
vt 0.9975 0.9700
vt 0.0250 0.9700
vt 0.0250 0.0795
vt 0.9975 0.0795
vt 0.9975 0.2578
vt 0.0250 0.2578
vt 0.0250 0.3695
vt 0.9975 0.3695
vt 0.9975 0.4873
vt 0.0250 0.4873
vt 0.0250 0.6336
vt 0.9975 0.6336
vt 0.9975 0.7761
vt 0.0250 0.7761
vn -0.6421 0.7401 0.1997
vn 0.9405 0.1730 -0.2925
vn 0.7018 0.6781 -0.2183
vn -0.0414 0.9991 0.0129
vn 0.4814 0.8636 -0.1497
vn 0.7950 0.5539 -0.2473
vn -0.5747 0.7986 0.1787
usemtl Fern_Mat
s 1
f 65/65/29 66/66/29 67/67/29 68/68/29
f 69/69/30 70/70/30 71/71/30 72/72/30
f 73/73/31 74/74/31 75/75/31 76/76/31
f 77/77/32 78/78/32 79/79/32 80/80/32
f 76/76/33 75/75/33 78/78/33 77/77/33
f 72/72/34 71/71/34 74/74/34 73/73/34
f 80/80/35 79/79/35 66/66/35 65/65/35
o Plane.011_Plane.012
v 0.348894 0.397537 0.453537
v 0.040342 0.397537 0.588152
v 0.068580 0.333377 0.652878
v 0.377132 0.333377 0.518263
v 0.127807 -0.024724 -0.053218
v -0.180745 -0.024724 0.081396
v -0.167766 0.160003 0.111145
v 0.140786 0.160003 -0.023470
v 0.170008 0.269846 0.043511
v -0.138544 0.269846 0.178126
v -0.099613 0.375362 0.267359
v 0.208939 0.375362 0.132745
v 0.265460 0.457870 0.262298
v -0.043092 0.457870 0.396912
v 0.011469 0.451950 0.521973
v 0.320021 0.451950 0.387358
vt 0.0250 0.8705
vt 0.9975 0.8705
vt 0.9975 0.9700
vt 0.0250 0.9700
vt 0.0250 0.0795
vt 0.9975 0.0795
vt 0.9975 0.2578
vt 0.0250 0.2578
vt 0.0250 0.3695
vt 0.9975 0.3695
vt 0.9975 0.4873
vt 0.0250 0.4873
vt 0.0250 0.6336
vt 0.9975 0.6336
vt 0.9975 0.7761
vt 0.0250 0.7761
vn 0.2689 0.7401 0.6164
vn -0.3938 0.1730 -0.9027
vn -0.2939 0.6781 -0.6736
vn 0.0173 0.9991 0.0397
vn -0.2016 0.8636 -0.4621
vn -0.3329 0.5539 -0.7631
vn 0.2407 0.7986 0.5516
usemtl Fern_Mat
s 1
f 81/81/36 82/82/36 83/83/36 84/84/36
f 85/85/37 86/86/37 87/87/37 88/88/37
f 89/89/38 90/90/38 91/91/38 92/92/38
f 93/93/39 94/94/39 95/95/39 96/96/39
f 92/92/40 91/91/40 94/94/40 93/93/40
f 88/88/41 87/87/41 90/90/41 89/89/41
f 96/96/42 95/95/42 82/82/42 81/81/42
o Plane.014_Plane.015
v -0.562741 0.492206 0.098861
v -0.520113 0.494672 -0.235059
v -0.593435 0.434413 -0.244864
v -0.636064 0.431948 0.089056
v -0.037270 0.040763 0.162610
v 0.005358 0.043229 -0.171310
v -0.017083 0.229432 -0.172800
v -0.059712 0.226966 0.161120
v -0.126327 0.340586 0.153454
v -0.083699 0.343052 -0.180465
v -0.174590 0.453660 -0.191252
v -0.217219 0.451194 0.142668
v -0.352894 0.541200 0.126012
v -0.310265 0.543666 -0.207908
v -0.445732 0.545111 -0.225191
v -0.488360 0.542646 0.108729
vt 0.0250 0.8705
vt 0.9975 0.8705
vt 0.9975 0.9700
vt 0.0250 0.9700
vt 0.0250 0.0795
vt 0.9975 0.0795
vt 0.9975 0.2578
vt 0.0250 0.2578
vt 0.0250 0.3695
vt 0.9975 0.3695
vt 0.9975 0.4873
vt 0.0250 0.4873
vt 0.0250 0.6336
vt 0.9975 0.6336
vt 0.9975 0.7761
vt 0.0250 0.7761
vn -0.6272 0.7753 -0.0743
vn 0.9847 0.1197 0.1266
vn 0.7636 0.6375 0.1022
vn 0.0096 0.9999 0.0086
vn 0.5448 0.8352 0.0757
vn 0.8538 0.5082 0.1128
vn -0.5542 0.8299 -0.0646
usemtl Fern_Mat
s 1
f 97/97/43 98/98/43 99/99/43 100/100/43
f 101/101/44 102/102/44 103/103/44 104/104/44
f 105/105/45 106/106/45 107/107/45 108/108/45
f 109/109/46 110/110/46 111/111/46 112/112/46
f 108/108/47 107/107/47 110/110/47 109/109/47
f 104/104/48 103/103/48 106/106/48 105/105/48
f 112/112/49 111/111/49 98/98/49 97/97/49
o Plane.012_Plane.013
v 0.238087 0.507805 -0.344870
v 0.435298 0.514592 -0.072129
v 0.502042 0.465230 -0.119161
v 0.304831 0.458444 -0.391902
v -0.129569 -0.012854 -0.066073
v 0.067641 -0.006067 0.206668
v 0.062428 0.181415 0.205771
v -0.134782 0.174628 -0.066969
v -0.095239 0.296456 -0.098594
v 0.101972 0.303243 0.174147
v 0.161491 0.425496 0.128069
v -0.035719 0.418710 -0.144672
v 0.062536 0.526854 -0.218408
v 0.259746 0.533641 0.054333
v 0.368929 0.554085 -0.025123
v 0.171719 0.547298 -0.297864
vt 0.0250 0.8705
vt 0.9975 0.8705
vt 0.9975 0.9700
vt 0.0250 0.9700
vt 0.0250 0.0795
vt 0.9975 0.0795
vt 0.9975 0.2578
vt 0.0250 0.2578
vt 0.0250 0.3695
vt 0.9975 0.3695
vt 0.9975 0.4873
vt 0.0250 0.4873
vt 0.0250 0.6336
vt 0.9975 0.6336
vt 0.9975 0.7761
vt 0.0250 0.7761
vn 0.4092 0.8555 -0.3172
vn -0.8100 -0.0197 0.5861
vn -0.6964 0.5239 0.4905
vn -0.1330 0.9885 0.0716
vn -0.5444 0.7503 0.3750
vn -0.7530 0.3833 0.5349
vn 0.3434 0.8993 -0.2707
usemtl Fern_Mat
s 1
f 113/113/50 114/114/50 115/115/50 116/116/50
f 117/117/51 118/118/51 119/119/51 120/120/51
f 121/121/52 122/122/52 123/123/52 124/124/52
f 125/125/53 126/126/53 127/127/53 128/128/53
f 124/124/54 123/123/54 126/126/54 125/125/54
f 120/120/55 119/119/55 122/122/55 121/121/55
f 128/128/56 127/127/56 114/114/56 113/113/56
o Plane.016_Plane.017
v 0.651794 0.215869 0.143545
v 0.491669 0.254210 0.437170
v 0.526440 0.170538 0.467058
v 0.686565 0.132197 0.173433
v 0.058289 0.006223 -0.152740
v -0.101836 0.044564 0.140884
v -0.011421 0.206456 0.169052
v 0.148704 0.168115 -0.124573
v 0.245925 0.246358 -0.081772
v 0.085800 0.284699 0.211853
v 0.201137 0.350758 0.266125
v 0.361262 0.312417 -0.027500
v 0.504152 0.342217 0.046532
v 0.344027 0.380558 0.340157
v 0.452229 0.329297 0.405857
v 0.612354 0.290956 0.112233
vt 0.0250 0.8705
vt 0.9975 0.8705
vt 0.9975 0.9700
vt 0.0250 0.9700
vt 0.0250 0.0795
vt 0.9975 0.0795
vt 0.9975 0.2578
vt 0.0250 0.2578
vt 0.0250 0.3695
vt 0.9975 0.3695
vt 0.9975 0.4873
vt 0.0250 0.4873
vt 0.0250 0.6336
vt 0.9975 0.6336
vt 0.9975 0.7761
vt 0.0250 0.7761
vn 0.8006 0.4669 0.3756
vn -0.7358 0.4919 -0.4655
vn -0.3583 0.8805 -0.3104
vn 0.3822 0.9199 0.0883
vn -0.1073 0.9767 -0.1860
vn -0.4803 0.7971 -0.3660
vn 0.7638 0.5452 0.3454
usemtl Fern_Mat
s 1
f 129/129/57 130/130/57 131/131/57 132/132/57
f 133/133/58 134/134/58 135/135/58 136/136/58
f 137/137/59 138/138/59 139/139/59 140/140/59
f 141/141/60 142/142/60 143/143/60 144/144/60
f 140/140/61 139/139/61 142/142/61 141/141/61
f 136/136/62 135/135/62 138/138/62 137/137/62
f 144/144/63 143/143/63 130/130/63 129/129/63
